<?xml version="1.0" encoding="UTF-8"?><svg id="a" xmlns="http://www.w3.org/2000/svg" viewBox="0 0 501.56 351.04"><defs><style>.b{fill:#231815;font-family:HGMinchoE, HGMinchoE;font-size:11.04px;}.c{fill:#e60012;}</style></defs><polygon class="c" points="29.38 86.39 9.79 86.38 0 69.4 9.81 52.44 29.41 52.45 39.19 69.43 29.38 86.39"/><text/><text class="b" transform="translate(7.68 73.2) scale(1.08 1)"><tspan x="0" y="0">PORT</tspan></text><polygon class="c" points="60.01 104.1 40.41 104.09 30.62 87.11 40.43 70.15 60.03 70.16 69.82 87.14 60.01 104.1"/><text class="b" transform="translate(38.3 90.91) scale(1.08 1)"><tspan x="0" y="0">PORT</tspan></text><polygon class="c" points="60.01 69 40.41 68.99 30.62 52.01 40.43 35.05 60.03 35.06 69.82 52.04 60.01 69"/><text class="b" transform="translate(38.3 55.81) scale(1.08 1)"><tspan x="0" y="0">PORT</tspan></text><polygon class="c" points="29.38 121.96 9.79 121.95 0 104.97 9.81 88.01 29.41 88.02 39.19 105 29.38 121.96"/><text class="b" transform="translate(7.68 108.77) scale(1.08 1)"><tspan x="0" y="0">PORT</tspan></text><polygon class="c" points="59.96 139.41 40.37 139.4 30.58 122.42 40.39 105.46 59.99 105.47 69.77 122.45 59.96 139.41"/><text/><text class="b" transform="translate(38.26 126.22) scale(1.08 1)"><tspan x="0" y="0">PORT</tspan></text><polygon class="c" points="90.59 157.12 70.99 157.11 61.2 140.13 71.01 123.16 90.61 123.18 100.4 140.15 90.59 157.12"/><text class="b" transform="translate(68.89 143.92) scale(1.08 1)"><tspan x="0" y="0">PORT</tspan></text><polygon class="c" points="90.59 122.02 70.99 122.01 61.2 105.03 71.01 88.06 90.61 88.08 100.4 105.05 90.59 122.02"/><text class="b" transform="translate(68.89 108.82) scale(1.08 1)"><tspan x="0" y="0">PORT</tspan></text><polygon class="c" points="59.96 174.98 40.37 174.97 30.58 157.99 40.39 141.03 59.99 141.04 69.77 158.02 59.96 174.98"/><text class="b" transform="translate(38.26 161.79) scale(1.08 1)"><tspan x="0" y="0">PORT</tspan></text><polygon class="c" points="90.32 51.35 70.72 51.33 60.93 34.36 70.74 17.39 90.34 17.41 100.13 34.38 90.32 51.35"/><text/><text class="b" transform="translate(68.61 38.15) scale(1.08 1)"><tspan x="0" y="0">PORT</tspan></text><polygon class="c" points="120.94 69.06 101.34 69.04 91.56 52.07 101.37 35.1 120.96 35.11 130.75 52.09 120.94 69.06"/><text class="b" transform="translate(99.24 55.86) scale(1.08 1)"><tspan x="0" y="0">PORT</tspan></text><polygon class="c" points="120.94 33.96 101.34 33.94 91.56 16.96 101.37 0 120.96 .01 130.75 16.99 120.94 33.96"/><text class="b" transform="translate(99.24 20.76) scale(1.08 1)"><tspan x="0" y="0">PORT</tspan></text><polygon class="c" points="90.32 86.92 70.72 86.9 60.93 69.93 70.74 52.96 90.34 52.98 100.13 69.95 90.32 86.92"/><text class="b" transform="translate(68.61 73.72) scale(1.08 1)"><tspan x="0" y="0">PORT</tspan></text><polygon class="c" points="121.51 103.94 101.92 103.93 92.13 86.95 101.94 69.99 121.53 70 131.32 86.98 121.51 103.94"/><text/><text class="b" transform="translate(99.81 90.75) scale(1.08 1)"><tspan x="0" y="0">PORT</tspan></text><polygon class="c" points="152.14 121.65 132.54 121.64 122.75 104.66 132.56 87.7 152.16 87.71 161.95 104.69 152.14 121.65"/><text class="b" transform="translate(130.43 108.46) scale(1.08 1)"><tspan x="0" y="0">PORT</tspan></text><polygon class="c" points="152.14 86.55 132.54 86.54 122.75 69.56 132.56 52.6 152.16 52.61 161.95 69.59 152.14 86.55"/><text class="b" transform="translate(130.43 73.36) scale(1.08 1)"><tspan x="0" y="0">PORT</tspan></text><polygon class="c" points="121.51 139.51 101.92 139.5 92.13 122.52 101.94 105.56 121.53 105.57 131.32 122.55 121.51 139.51"/><text class="b" transform="translate(99.81 126.32) scale(1.08 1)"><tspan x="0" y="0">PORT</tspan></text><polygon class="c" points="152.09 156.96 132.5 156.95 122.71 139.97 132.52 123.01 152.11 123.02 161.9 140 152.09 156.96"/><text/><text class="b" transform="translate(130.39 143.77) scale(1.08 1)"><tspan x="0" y="0">PORT</tspan></text><polygon class="c" points="182.72 174.67 163.12 174.66 153.33 157.68 163.14 140.71 182.74 140.73 192.53 157.7 182.72 174.67"/><text class="b" transform="translate(161.01 161.48) scale(1.08 1)"><tspan x="0" y="0">PORT</tspan></text><polygon class="c" points="182.72 139.57 163.12 139.56 153.33 122.58 163.14 105.61 182.74 105.63 192.53 122.6 182.72 139.57"/><text class="b" transform="translate(161.01 126.38) scale(1.08 1)"><tspan x="0" y="0">PORT</tspan></text><polygon class="c" points="152.09 192.53 132.5 192.52 122.71 175.54 132.52 158.58 152.11 158.59 161.9 175.57 152.09 192.53"/><text class="b" transform="translate(130.39 179.34) scale(1.08 1)"><tspan x="0" y="0">PORT</tspan></text><polygon class="c" points="182.44 68.9 162.85 68.88 153.06 51.91 162.87 34.94 182.47 34.96 192.25 51.93 182.44 68.9"/><text/><text class="b" transform="translate(160.74 55.7) scale(1.08 1)"><tspan x="0" y="0">PORT</tspan></text><polygon class="c" points="213.07 86.61 193.47 86.59 183.69 69.62 193.5 52.65 213.09 52.66 222.88 69.64 213.07 86.61"/><text class="b" transform="translate(191.37 73.41) scale(1.08 1)"><tspan x="0" y="0">PORT</tspan></text><polygon class="c" points="213.07 51.51 193.47 51.49 183.69 34.51 193.5 17.55 213.09 17.56 222.88 34.54 213.07 51.51"/><text class="b" transform="translate(191.37 38.31) scale(1.08 1)"><tspan x="0" y="0">PORT</tspan></text><polygon class="c" points="182.44 104.47 162.85 104.46 153.06 87.48 162.87 70.51 182.47 70.53 192.25 87.5 182.44 104.47"/><text class="b" transform="translate(160.74 91.27) scale(1.08 1)"><tspan x="0" y="0">PORT</tspan></text><polygon class="c" points="29.67 227.15 10.07 227.13 .29 210.16 10.1 193.19 29.69 193.21 39.48 210.18 29.67 227.15"/><text/><text class="b" transform="translate(7.97 213.95) scale(1.08 1)"><tspan x="0" y="0">PORT</tspan></text><polygon class="c" points="60.29 244.86 40.7 244.84 30.91 227.86 40.72 210.9 60.32 210.91 70.1 227.89 60.29 244.86"/><text class="b" transform="translate(38.59 231.66) scale(1.08 1)"><tspan x="0" y="0">PORT</tspan></text><polygon class="c" points="60.29 209.75 40.7 209.74 30.91 192.76 40.72 175.8 60.32 175.81 70.1 192.79 60.29 209.75"/><text class="b" transform="translate(38.59 196.56) scale(1.08 1)"><tspan x="0" y="0">PORT</tspan></text><polygon class="c" points="29.67 262.72 10.07 262.7 .29 245.73 10.1 228.76 29.69 228.78 39.48 245.75 29.67 262.72"/><text class="b" transform="translate(7.97 249.52) scale(1.08 1)"><tspan x="0" y="0">PORT</tspan></text><polygon class="c" points="60.25 280.16 40.65 280.15 30.87 263.17 40.67 246.21 60.27 246.22 70.06 263.2 60.25 280.16"/><text/><text class="b" transform="translate(38.55 266.97) scale(1.08 1)"><tspan x="0" y="0">PORT</tspan></text><polygon class="c" points="90.87 297.87 71.28 297.86 61.49 280.88 71.3 263.92 90.9 263.93 100.68 280.91 90.87 297.87"/><text class="b" transform="translate(69.17 284.68) scale(1.08 1)"><tspan x="0" y="0">PORT</tspan></text><polygon class="c" points="90.87 262.77 71.28 262.76 61.49 245.78 71.3 228.82 90.9 228.83 100.68 245.81 90.87 262.77"/><text class="b" transform="translate(69.17 249.58) scale(1.08 1)"><tspan x="0" y="0">PORT</tspan></text><polygon class="c" points="60.25 315.74 40.65 315.72 30.87 298.74 40.67 281.78 60.27 281.79 70.06 298.77 60.25 315.74"/><text class="b" transform="translate(38.55 302.54) scale(1.08 1)"><tspan x="0" y="0">PORT</tspan></text><polygon class="c" points="90.6 192.1 71.01 192.09 61.22 175.11 71.03 158.15 90.62 158.16 100.41 175.14 90.6 192.1"/><text/><text class="b" transform="translate(68.9 178.91) scale(1.08 1)"><tspan x="0" y="0">PORT</tspan></text><polygon class="c" points="121.23 209.81 101.63 209.8 91.84 192.82 101.65 175.85 121.25 175.87 131.04 192.85 121.23 209.81"/><text class="b" transform="translate(99.52 196.62) scale(1.08 1)"><tspan x="0" y="0">PORT</tspan></text><polygon class="c" points="121.01 174.71 101.41 174.7 91.63 157.72 101.44 140.75 121.03 140.77 130.82 157.74 121.01 174.71"/><text class="b" transform="translate(99.52 161.52) scale(1.08 1)"><tspan x="0" y="0">PORT</tspan></text><polygon class="c" points="90.6 227.67 71.01 227.66 61.22 210.68 71.03 193.72 90.62 193.73 100.41 210.71 90.6 227.67"/><text class="b" transform="translate(68.9 214.48) scale(1.08 1)"><tspan x="0" y="0">PORT</tspan></text><polygon class="c" points="183.18 210.64 163.59 210.62 153.8 193.65 163.61 176.68 183.21 176.69 192.99 193.67 183.18 210.64"/><text class="b" transform="translate(161.48 197.44) scale(1.08 1)"><tspan x="0" y="0">PORT</tspan></text><polygon class="c" points="29.38 50.67 9.79 50.66 0 33.68 9.81 16.72 29.41 16.73 39.19 33.71 29.38 50.67"/><text class="b" transform="translate(7.68 37.48) scale(1.08 1)"><tspan x="0" y="0">PORT</tspan></text><polygon class="c" points="213.82 121.98 194.22 121.97 184.43 104.99 194.24 88.03 213.84 88.04 223.63 105.02 213.82 121.98"/><text class="b" transform="translate(192.12 108.79) scale(1.08 1)"><tspan x="0" y="0">PORT</tspan></text><polygon class="c" points="244.44 139.69 224.85 139.68 215.06 122.7 224.87 105.73 244.47 105.75 254.25 122.73 244.44 139.69"/><text class="b" transform="translate(222.74 126.5) scale(1.08 1)"><tspan x="0" y="0">PORT</tspan></text><polygon class="c" points="244.44 104.59 224.85 104.58 215.06 87.6 224.87 70.63 244.47 70.65 254.25 87.63 244.44 104.59"/><text class="b" transform="translate(222.74 91.4) scale(1.08 1)"><tspan x="0" y="0">PORT</tspan></text><polygon class="c" points="213.82 157.55 194.22 157.54 184.43 140.56 194.24 123.6 213.84 123.61 223.63 140.59 213.82 157.55"/><text class="b" transform="translate(192.12 144.36) scale(1.08 1)"><tspan x="0" y="0">PORT</tspan></text><polygon class="c" points="275.54 192.53 255.95 192.52 246.16 175.54 255.97 158.58 275.57 158.59 285.35 175.57 275.54 192.53"/><text class="b" transform="translate(253.84 179.34) scale(1.08 1)"><tspan x="0" y="0">PORT</tspan></text><polygon class="c" points="275.54 157.43 255.95 157.42 246.16 140.44 255.97 123.48 275.57 123.49 285.35 140.47 275.54 157.43"/><text class="b" transform="translate(253.84 144.24) scale(1.08 1)"><tspan x="0" y="0">PORT</tspan></text><polygon class="c" points="275.54 86.92 255.95 86.9 246.16 69.93 255.97 52.96 275.57 52.98 285.35 69.95 275.54 86.92"/><text class="b" transform="translate(253.84 73.72) scale(1.08 1)"><tspan x="0" y="0">PORT</tspan></text><polygon class="c" points="245.14 245.02 225.54 245.01 215.76 228.03 225.57 211.07 245.16 211.08 254.95 228.06 245.14 245.02"/><text class="b" transform="translate(223.44 231.83) scale(1.08 1)"><tspan x="0" y="0">PORT</tspan></text><polygon class="c" points="275.77 262.73 256.17 262.72 246.38 245.74 256.19 228.78 275.79 228.79 285.58 245.77 275.77 262.73"/><text class="b" transform="translate(254.06 249.54) scale(1.08 1)"><tspan x="0" y="0">PORT</tspan></text><polygon class="c" points="275.77 227.63 256.17 227.62 246.38 210.64 256.19 193.68 275.79 193.69 285.58 210.67 275.77 227.63"/><text class="b" transform="translate(254.06 214.44) scale(1.08 1)"><tspan x="0" y="0">PORT</tspan></text><polygon class="c" points="306.12 175.13 286.53 175.12 276.74 158.14 286.55 141.17 306.15 141.19 315.93 158.16 306.12 175.13"/><text class="b" transform="translate(284.42 161.94) scale(1.08 1)"><tspan x="0" y="0">PORT</tspan></text><polygon class="c" points="306.59 68.73 286.99 68.72 277.21 51.74 287.02 34.78 306.61 34.79 316.4 51.77 306.59 68.73"/><text class="b" transform="translate(284.89 55.54) scale(1.08 1)"><tspan x="0" y="0">PORT</tspan></text><polygon class="c" points="337.69 51.06 318.1 51.05 308.31 34.07 318.12 17.1 337.71 17.12 347.5 34.09 337.69 51.06"/><text class="b" transform="translate(315.99 37.86) scale(1.08 1)"><tspan x="0" y="0">PORT</tspan></text><polygon class="c" points="306.59 139.73 286.99 139.72 277.21 122.74 287.02 105.77 306.61 105.79 316.4 122.77 306.59 139.73"/><text class="b" transform="translate(284.89 126.54) scale(1.08 1)"><tspan x="0" y="0">PORT</tspan></text><polygon class="c" points="306.59 104.63 286.99 104.62 277.21 87.64 287.02 70.67 306.61 70.69 316.4 87.67 306.59 104.63"/><text class="b" transform="translate(284.89 91.44) scale(1.08 1)"><tspan x="0" y="0">PORT</tspan></text><polygon class="c" points="337.69 157.47 318.1 157.46 308.31 140.48 318.12 123.52 337.71 123.53 347.5 140.51 337.69 157.47"/><text class="b" transform="translate(315.99 144.28) scale(1.08 1)"><tspan x="0" y="0">PORT</tspan></text><polygon class="c" points="337.69 86.96 318.1 86.94 308.31 69.97 318.12 53 337.71 53.02 347.5 69.99 337.69 86.96"/><text class="b" transform="translate(315.99 73.76) scale(1.08 1)"><tspan x="0" y="0">PORT</tspan></text><polygon class="c" points="368.74 68.77 349.14 68.76 339.36 51.78 349.16 34.82 368.76 34.83 378.55 51.81 368.74 68.77"/><text class="b" transform="translate(347.04 55.58) scale(1.08 1)"><tspan x="0" y="0">PORT</tspan></text><polygon class="c" points="399.84 51.1 380.24 51.09 370.46 34.11 380.27 17.14 399.86 17.16 409.65 34.13 399.84 51.1"/><text class="b" transform="translate(378.14 37.9) scale(1.08 1)"><tspan x="0" y="0">PORT</tspan></text><polygon class="c" points="369.24 138.97 349.64 138.95 339.85 121.97 349.66 105.01 369.26 105.02 379.05 122 369.24 138.97"/><text class="b" transform="translate(347.54 125.77) scale(1.08 1)"><tspan x="0" y="0">PORT</tspan></text><polygon class="c" points="399.86 156.67 380.27 156.66 370.48 139.68 380.29 122.72 399.89 122.73 409.67 139.71 399.86 156.67"/><text class="b" transform="translate(378.16 143.48) scale(1.08 1)"><tspan x="0" y="0">PORT</tspan></text><polygon class="c" points="399.86 121.57 380.27 121.56 370.48 104.58 380.29 87.62 399.89 87.63 409.67 104.61 399.86 121.57"/><text class="b" transform="translate(378.16 108.38) scale(1.08 1)"><tspan x="0" y="0">PORT</tspan></text><polygon class="c" points="369.24 174.54 349.64 174.52 339.85 157.55 349.66 140.58 369.26 140.59 379.05 157.57 369.24 174.54"/><text class="b" transform="translate(347.54 161.34) scale(1.08 1)"><tspan x="0" y="0">PORT</tspan></text><polygon class="c" points="399.82 191.98 380.22 191.97 370.43 174.99 380.24 158.03 399.84 158.04 409.63 175.02 399.82 191.98"/><text class="b" transform="translate(378.12 178.79) scale(1.08 1)"><tspan x="0" y="0">PORT</tspan></text><polygon class="c" points="430.44 174.59 410.85 174.58 401.06 157.6 410.87 140.64 430.47 140.65 440.25 157.63 430.44 174.59"/><text class="b" transform="translate(408.74 161.4) scale(1.08 1)"><tspan x="0" y="0">PORT</tspan></text><polygon class="c" points="430.17 139.49 410.57 139.48 400.79 122.5 410.6 105.53 430.19 105.55 439.98 122.53 430.17 139.49"/><text class="b" transform="translate(408.47 126.3) scale(1.08 1)"><tspan x="0" y="0">PORT</tspan></text><polygon class="c" points="430.55 209.64 410.95 209.62 401.17 192.64 410.98 175.68 430.57 175.69 440.36 192.67 430.55 209.64"/><text class="b" transform="translate(408.85 196.44) scale(1.08 1)"><tspan x="0" y="0">PORT</tspan></text><polygon class="c" points="461.17 227.34 441.58 227.33 431.79 210.35 441.6 193.39 461.2 193.4 470.98 210.38 461.17 227.34"/><text class="b" transform="translate(439.47 214.15) scale(1.08 1)"><tspan x="0" y="0">PORT</tspan></text><polygon class="c" points="461.17 192.24 441.58 192.23 431.79 175.25 441.6 158.29 461.2 158.3 470.98 175.28 461.17 192.24"/><text class="b" transform="translate(439.47 179.05) scale(1.08 1)"><tspan x="0" y="0">PORT</tspan></text><polygon class="c" points="430.55 245.21 410.95 245.19 401.17 228.22 410.98 211.25 430.57 211.26 440.36 228.24 430.55 245.21"/><text class="b" transform="translate(408.85 232.01) scale(1.08 1)"><tspan x="0" y="0">PORT</tspan></text><polygon class="c" points="461.13 262.65 441.53 262.64 431.75 245.66 441.56 228.7 461.15 228.71 470.94 245.69 461.13 262.65"/><text class="b" transform="translate(439.43 249.46) scale(1.08 1)"><tspan x="0" y="0">PORT</tspan></text><polygon class="c" points="491.75 245.26 472.16 245.25 462.37 228.27 472.18 211.31 491.78 211.32 501.56 228.3 491.75 245.26"/><text class="b" transform="translate(470.05 232.07) scale(1.08 1)"><tspan x="0" y="0">PORT</tspan></text><polygon class="c" points="491.48 210.16 471.89 210.15 462.1 193.17 471.91 176.2 491.5 176.22 501.29 193.2 491.48 210.16"/><text class="b" transform="translate(469.78 196.97) scale(1.08 1)"><tspan x="0" y="0">PORT</tspan></text><polygon class="c" points="430.89 68.82 411.3 68.81 401.51 51.83 411.32 34.86 430.92 34.88 440.7 51.85 430.89 68.82"/><text class="b" transform="translate(409.19 55.63) scale(1.08 1)"><tspan x="0" y="0">PORT</tspan></text><polygon class="c" points="461.52 51.43 441.92 51.41 432.13 34.44 441.94 17.47 461.54 17.48 471.33 34.46 461.52 51.43"/><text class="b" transform="translate(439.82 38.23) scale(1.08 1)"><tspan x="0" y="0">PORT</tspan></text><polygon class="c" points="430.89 104.39 411.3 104.38 401.51 87.4 411.32 70.43 430.92 70.45 440.7 87.43 430.89 104.39"/><text class="b" transform="translate(409.19 91.2) scale(1.08 1)"><tspan x="0" y="0">PORT</tspan></text><polygon class="c" points="306.86 280.3 287.26 280.28 277.47 263.31 287.28 246.34 306.88 246.36 316.67 263.33 306.86 280.3"/><text class="b" transform="translate(285.15 267.1) scale(1.08 1)"><tspan x="0" y="0">PORT</tspan></text><polygon class="c" points="306.81 315.61 287.22 315.59 277.43 298.62 287.24 281.65 306.84 281.67 316.62 298.64 306.81 315.61"/><text class="b" transform="translate(285.11 302.41) scale(1.08 1)"><tspan x="0" y="0">PORT</tspan></text><polygon class="c" points="337.44 298.21 317.84 298.2 308.05 281.22 317.86 264.26 337.46 264.27 347.25 281.25 337.44 298.21"/><text class="b" transform="translate(315.73 285.02) scale(1.08 1)"><tspan x="0" y="0">PORT</tspan></text><polygon class="c" points="368.53 315.73 348.93 315.72 339.15 298.74 348.96 281.78 368.55 281.79 378.34 298.77 368.53 315.73"/><text class="b" transform="translate(346.83 302.54) scale(1.08 1)"><tspan x="0" y="0">PORT</tspan></text><polygon class="c" points="368.48 351.04 348.89 351.03 339.1 334.05 348.91 317.09 368.51 317.1 378.29 334.08 368.48 351.04"/><text class="b" transform="translate(346.78 337.85) scale(1.08 1)"><tspan x="0" y="0">PORT</tspan></text><polygon class="c" points="399.11 333.65 379.51 333.64 369.73 316.66 379.54 299.69 399.13 299.71 408.92 316.68 399.11 333.65"/><text class="b" transform="translate(377.41 320.45) scale(1.08 1)"><tspan x="0" y="0">PORT</tspan></text></svg>